#!OML:ASF X:\für Bonn\!DataBase\2005_08_12_Daniel\c3d\Daniel.ASF
:FULLY-SPECIFIED
:DEGREES
81
root -3.67028 7.5315 -1.12402 -326.243 -88.5785 294.797
lowerback 53.6204 -3.17406 3.24488
upperback 4.38802 -3.78112 -1.74811
thorax -16.5947 -2.3157 -1.38749
lowerneck 9.41729 2.51793 -1.34496
upperneck -2.92275 3.10202 -1.28061
head -2.5646 1.59577 -0.335547
rclavicle -5.76476e-015 1.27222e-014
rhumerus 68.4156 -1.68761 -117.645
rradius 5.1424
rwrist 82.3563
rhand -25.9826 10.0051
rfingers 7.12502
rthumb 0.562579 -19.9739
lclavicle -5.76476e-015 1.27222e-014
lhumerus 63.0759 2.73276 94.8237
lradius 11.2992
lwrist -65.6421
lhand -19.55 -0.579592
lfingers 7.12502
lthumb 6.77426 29.292
rfemur 16.4992 -55.6372 -116.058
rtibia 146.491
rfoot 350.433 80.8789
rtoes -3.69971
lfemur -557.464 117.524 -102.475
ltibia 146.161
lfoot 3.54645 -76.7856
ltoes 11.6898
82
root -3.67787 7.35998 -1.1274 -329.706 -88.5651 297.558
lowerback 54.3402 -3.20367 3.26144
upperback 4.48486 -3.83815 -1.77026
thorax -16.5621 -2.35677 -1.37636
lowerneck 9.70766 2.49626 -1.33563
upperneck -3.48177 3.06314 -1.31185
head -2.80855 1.58392 -0.356521
rclavicle 2.68359e-015 -1.55052e-014
rhumerus 68.5841 -1.6311 -117.442
rradius 4.90722
rwrist 82.1638
rhand -25.914 9.85133
rfingers 7.12502
rthumb 0.6288 -20.1275
lclavicle 2.68359e-015 -1.55052e-014
lhumerus 63.1361 2.66578 94.6688
lradius 11.2202
lwrist -65.4066
lhand -19.6075 -0.832158
lfingers 7.12502
lthumb 6.71869 29.0412
rfemur 17.4623 -54.3554 -120.197
rtibia 147.749
rfoot 344.713 82.2962
rtoes -3.84918
lfemur -554.409 117.319 -96.7533
ltibia 147.307
lfoot 6.92969 -78.3447
ltoes 11.9587
83
root -3.68595 7.1881 -1.1299 -333.31 -88.5476 300.434
lowerback 55.0875 -3.24141 3.27339
upperback 4.56337 -3.9052 -1.78452
thorax -16.5481 -2.4018 -1.34838
lowerneck 9.90762 2.48572 -1.35424
upperneck -3.8424 3.03787 -1.34446
head -2.9699 1.57692 -0.370067
rclavicle 7.15625e-015 5.96354e-015
rhumerus 68.66 -1.5525 -117.23
rradius 4.76611
rwrist 82.0832
rhand -25.7402 9.66608
rfingers 7.12502
rthumb 0.796631 -20.3122
lclavicle 7.15625e-015 5.96354e-015
lhumerus 63.1515 2.64297 94.5159
lradius 11.1623
lwrist -65.2561
lhand -19.5972 -0.995354
lfingers 7.12502
lthumb 6.72862 28.8777
rfemur 17.8585 -53.0783 -123.84
rtibia 149.009
rfoot 336.079 83.5139
rtoes -4.08859
lfemur -551.751 117.321 -91.3759
ltibia 148.438
lfoot 11.611 -79.8159
ltoes 12.3152
84
root -3.6927 7.02572 -1.13297 -336.838 -88.5224 303.364
lowerback 55.6977 -3.27264 3.2876
upperback 4.65429 -3.96347 -1.80377
thorax -16.5 -2.44189 -1.33525
lowerneck 9.94356 2.46452 -1.29579
upperneck -4.04015 3.0097 -1.42632
head -3.04251 1.56732 -0.408263
rclavicle 2.31584e-014 -9.54166e-015
rhumerus 68.7563 -1.50653 -117.018
rradius 4.70618
rwrist 82.1115
rhand -25.4216 9.47905
rfingers 7.12502
rthumb 1.10442 -20.4978
lclavicle 2.31584e-014 -9.54166e-015
lhumerus 63.1837 2.63675 94.4327
lradius 11.1294
lwrist -65.3729
lhand -19.5895 -1.1479
lfingers 7.12502
lthumb 6.73606 28.725
rfemur 17.9036 -51.9655 -127.026
rtibia 150.246
rfoot 322.817 84.2527
rtoes -4.5298
lfemur -549.751 117.324 -86.7302
ltibia 149.541
lfoot 16.5072 -81.0575
ltoes 12.4111
85
root -3.69735 6.87251 -1.13538 -339.331 -88.4732 305.438
lowerback 56.139 -3.31795 3.32406
upperback 4.7268 -4.0147 -1.80225
thorax -16.4534 -2.47648 -1.31553
lowerneck 9.9835 2.45849 -1.28169
upperneck -4.2063 2.99611 -1.50174
head -3.10607 1.56508 -0.437239
rclavicle 1.49089e-016 -2.54444e-014
rhumerus 68.8203 -1.43808 -116.788
rradius 4.67476
rwrist 82.2853
rhand -24.9997 9.24302
rfingers 7.12502
rthumb 1.51181 -20.7314
lclavicle 1.49089e-016 -2.54444e-014
lhumerus 63.1841 2.69965 94.4575
lradius 11.1356
lwrist -65.7393
lhand -19.5284 -1.20857
lfingers 7.12502
lthumb 6.79506 28.6624
rfemur 17.753 -51.074 -129.873
rtibia 151.473
rfoot 307.664 84.4754
rtoes -5.03601
lfemur -548.178 117.222 -82.5483
ltibia 150.609
lfoot 22.5828 -82.0934
ltoes 12.4695
86
root -3.70131 6.72515 -1.13789 -342.411 -88.4304 308.122
lowerback 56.5443 -3.35424 3.34303
upperback 4.81496 -4.06997 -1.81377
thorax -16.3837 -2.51216 -1.30201
lowerneck 9.9986 2.44593 -1.18518
upperneck -4.34601 2.98195 -1.62355
head -3.15376 1.5627 -0.495044
rclavicle 8.59744e-015 1.19271e-014
rhumerus 68.8803 -1.38196 -116.569
rradius 4.70223
rwrist 82.5396
rhand -24.4942 9.00757
rfingers 7.12502
rthumb 2.00009 -20.9628
lclavicle 8.59744e-015 1.19271e-014
lhumerus 63.2117 2.89138 94.7762
lradius 11.1445
lwrist -66.6857
lhand -19.38 -1.21993
lfingers 7.12502
lthumb 6.93835 28.6464
rfemur 17.3268 -50.2374 -132.438
rtibia 152.65
rfoot 293.031 84.3396
rtoes -5.54987
lfemur -547.032 117.137 -78.9048
ltibia 151.631
lfoot 29.76 -82.9157
ltoes 12.4943
87
root -3.7048 6.58508 -1.13986 -344.721 -88.3709 310.085
lowerback 56.9038 -3.40546 3.39889
upperback 4.89587 -4.11796 -1.82503
thorax -16.3175 -2.54529 -1.3094
lowerneck 9.99498 2.43331 -1.11222
upperneck -4.43274 2.96701 -1.72137
head -3.18041 1.5588 -0.539954
rclavicle 1.27222e-014 4.77083e-015
rhumerus 68.9171 -1.35648 -116.336
rradius 4.7606
rwrist 82.8228
rhand -23.8944 8.81688
rfingers 7.12502
rthumb 2.57934 -21.1473
lclavicle 1.27222e-014 4.77083e-015
lhumerus 63.2368 3.10515 95.1848
lradius 11.1445
lwrist -67.8388
lhand -19.1725 -1.10523
lfingers 7.12502
lthumb 7.13861 28.7544
rfemur 16.666 -49.5088 -134.664
rtibia 153.781
rfoot 280.75 83.947
rtoes -6.13898
lfemur -546.203 117.042 -75.5979
ltibia 152.618
lfoot 37.8461 -83.5935
ltoes 12.4104
88
root -3.70773 6.4535 -1.14212 -347.209 -88.3294 312.25
lowerback 57.2483 -3.43788 3.40181
upperback 4.97323 -4.17311 -1.82217
thorax -16.2512 -2.57906 -1.27356
lowerneck 9.97198 2.4432 -1.09901
upperneck -4.50462 2.97628 -1.79528
head -3.19949 1.56681 -0.567536
rclavicle 3.13583e-014 -2.78299e-015
rhumerus 68.9448 -1.26275 -116.113
rradius 4.7995
rwrist 83.1354
rhand -23.2707 8.61827
rfingers 7.12502
rthumb 3.18167 -21.3377
lclavicle 3.13583e-014 -2.78299e-015
lhumerus 63.2772 3.39282 95.6341
lradius 11.1249
lwrist -69.0694
lhand -18.9344 -0.918672
lfingers 7.12502
lthumb 7.36846 28.933
rfemur 15.764 -48.9256 -136.552
rtibia 154.854
rfoot 270.984 83.3658
rtoes -6.7198
lfemur -545.672 116.939 -72.7613
ltibia 153.528
lfoot 47.3299 -84.0231
ltoes 12.3555
89
root -3.70905 6.33094 -1.144 -349.218 -88.2807 313.99
lowerback 57.5486 -3.48279 3.4413
upperback 5.04143 -4.22122 -1.83683
thorax -16.1936 -2.60983 -1.27856
lowerneck 9.99321 2.44544 -1.03658
upperneck -4.57835 2.97994 -1.88134
head -3.22681 1.57175 -0.608215
rclavicle -1.63997e-014 -2.8625e-014
rhumerus 68.9202 -1.21553 -115.894
rradius 4.88975
rwrist 83.2979
rhand -22.6342 8.46972
rfingers 7.12502
rthumb 3.7964 -21.4762
lclavicle -1.63997e-014 -2.8625e-014
lhumerus 63.2746 3.66636 96.1379
lradius 11.1471
lwrist -70.308
lhand -18.6128 -0.703553
lfingers 7.12502
lthumb 7.67886 29.137
rfemur 14.718 -48.4514 -138.183
rtibia 155.872
rfoot 263.241 82.7833
rtoes -7.29934
lfemur -545.304 116.796 -70.1786
ltibia 154.397
lfoot 56.5307 -84.2864
ltoes 12.223
90
root -3.71231 6.26424 -1.14807 -350.846 -88.2331 315.389
lowerback 57.8052 -3.51524 3.47886
upperback 5.11326 -4.25317 -1.84209
thorax -16.126 -2.63345 -1.28131
lowerneck 10.0539 2.43519 -0.961789
upperneck -4.65532 2.96549 -1.99405
head -3.26246 1.56868 -0.659559
rclavicle 5.41688e-015 3.97569e-016
rhumerus 68.8708 -1.20577 -115.65
rradius 4.98577
rwrist 83.3402
rhand -22.0206 8.38316
rfingers 7.12502
rthumb 4.38889 -21.5514
lclavicle 5.41688e-015 3.97569e-016
lhumerus 63.2325 3.97424 96.7876
lradius 11.1857
lwrist -71.5081
lhand -18.344 -0.492199
lfingers 7.12502
lthumb 7.93836 29.3387
rfemur 14.515 -47.7148 -139.867
rtibia 156.478
rfoot 257.887 81.8861
rtoes -7.68871
lfemur -543.721 116.83 -67.131
ltibia 154.845
lfoot 64.1555 -84.8224
ltoes 12.0711
91
root -3.71109 6.1641 -1.14987 -352.575 -88.1726 316.952
lowerback 57.9921 -3.56507 3.52125
upperback 5.19356 -4.30296 -1.85097
thorax -16.0439 -2.66367 -1.28285
lowerneck 10.1271 2.4472 -0.96975
upperneck -4.73806 2.97522 -2.02811
head -3.30498 1.57608 -0.672451
rclavicle 2.05245e-014 -1.82882e-014
rhumerus 68.7628 -1.16146 -115.414
rradius 5.12492
rwrist 83.177
rhand -21.5127 8.35855
rfingers 7.12502
rthumb 4.87927 -21.5653
lclavicle 2.05245e-014 -1.82882e-014
lhumerus 63.1716 4.18389 97.1829
lradius 11.2276
lwrist -72.1339
lhand -18.081 -0.224899
lfingers 7.12502
lthumb 8.19218 29.5963
rfemur 166.581 47.4679 38.9473
rtibia 202.687
rfoot 252.617 98.2872
rtoes -7.99891
lfemur -716.41 243.415 -245.141
ltibia 204.424
lfoot 72.1717 -95.1309
ltoes 11.8821
92
root -3.7091 6.07538 -1.15208 -353.678 -88.1345 317.945
lowerback 58.1237 -3.58993 3.55864
upperback 5.27605 -4.32431 -1.85466
thorax -15.9535 -2.68121 -1.29207
lowerneck 10.2528 2.44851 -0.959723
upperneck -4.86977 2.96838 -2.09867
head -3.37418 1.5771 -0.70125
rclavicle 4.47266e-016 1.11319e-014
rhumerus 68.6378 -1.12883 -115.172
rradius 5.24346
rwrist 82.7811
rhand -21.1338 8.34402
rfingers 7.12502
rthumb 5.24518 -21.5711
lclavicle 4.47266e-016 1.11319e-014
lhumerus 63.086 4.32512 97.5108
lradius 11.2387
lwrist -72.3447
lhand -18.0408 0.0274031
lfingers 7.12502
lthumb 8.23094 29.8471
rfemur 167.619 47.3021 37.9038
rtibia 201.918
rfoot 248.142 98.5482
rtoes -8.3616
lfemur -716.568 243.672 -243.296
ltibia 203.775
lfoot 79.5207 -95.1372
ltoes 11.5605
